<?xml version="1.0" encoding="UTF-8" standalone="no"?> <svg xmlns="http://www.w3.org/2000/svg" viewBox="0 0 81.02 79.57"><defs><style>.cls-1{isolation:isolate;}.cls-2{fill:#c0e779;}.cls-3{fill:#dd8136;opacity:0.5;mix-blend-mode:multiply;}.cls-4{fill:#371438;}.cls-5{fill:#fff;}.cls-6{fill:#e59153;}.cls-7{fill:#602f2f;}.cls-8{fill:#f6f870;}.cls-9{fill:#e54545;}</style></defs><title>Asset 22</title><g class="cls-1"><g id="Layer_2" data-name="Layer 2"><g id="Layer_1-2" data-name="Layer 1"><circle class="cls-2" cx="57.34" cy="17.7" r="16.59"/><path class="cls-3" d="M72.87,11.91a16.46,16.46,0,0,1-4.59,8.82A16.56,16.56,0,0,1,41,14.79a16.58,16.58,0,1,0,31.85-2.88Z"/><path class="cls-4" d="M57.34,35.4a17.71,17.71,0,1,1,12.52-5.19h0A17.56,17.56,0,0,1,57.34,35.4Zm0-33.16A15.46,15.46,0,0,0,46.41,28.63a15.46,15.46,0,0,0,21.87,0h0A15.46,15.46,0,0,0,57.34,2.24Z"/><path class="cls-5" d="M21.35,22.63a.41.41,0,0,0-.62,0L1.6,46.41c-2.11,2,2.89,10.72,11.17,19.45S29.5,80.05,31.61,78l24.8-17.76a.41.41,0,0,0,.07-.62Z"/><path class="cls-6" d="M33.23,63.29c-2.29,2.29-7.34,1-11.27-3s-5.26-9-3-11.27,7.33-1,11.26,3S35.52,61,33.23,63.29Z"/><path class="cls-3" d="M56.48,59.66l-32.25-34a.38.38,0,0,0-.34.15L4.77,49.57C2.65,51.58,7.65,60.29,15.94,69a.46.46,0,0,0,.07.07c7.14,6.79,13.76,10.69,15.6,8.94l24.8-17.76A.41.41,0,0,0,56.48,59.66Z"/><path class="cls-4" d="M30.38,79.57c-4.78,0-13.74-8-18.42-12.94C6.51,60.88-2.84,49.09.83,45.6l9.71-11.2a1.12,1.12,0,1,1,1.69,1.46L2.45,47.14c-1.1,1.06,1.92,8.25,11.13,18S29.82,78.2,30.84,77.23l.12-.1L55.11,59.84,21.12,24,18,28.17a1.12,1.12,0,0,1-1.79-1.34L19.83,22A1.53,1.53,0,0,1,21,21.39a1.57,1.57,0,0,1,1.2.47l35.13,37a1.53,1.53,0,0,1,.41,1.22,1.51,1.51,0,0,1-.67,1.1L32.32,78.91A2.82,2.82,0,0,1,30.38,79.57Zm25.38-20.2,0,0Zm-34.14-36Z"/><path class="cls-4" d="M13.57,33.33a1.14,1.14,0,0,1-.67-.22,1.13,1.13,0,0,1-.22-1.57l1.76-2.34a1.12,1.12,0,1,1,1.79,1.34l-1.76,2.34A1.11,1.11,0,0,1,13.57,33.33Z"/><path class="cls-7" d="M37.78,48.94c8.68,8.35,16.8,13.19,19,11.07,2.52-2.4-3.44-12.78-13.33-23.2S23.54,19.89,21,22.28c-2.23,2.12,2.18,10.48,10.06,19.59C31.07,41.87,35.44,47.32,37.78,48.94Z"/><path class="cls-4" d="M55.37,61.6C51,61.6,43.2,55.7,37.06,49.81c-2.45-1.75-6.69-7-6.87-7.24-6.68-7.72-13.31-17.9-10-21.1,1.69-1.59,5-.81,9.86,2.33A83.24,83.24,0,0,1,44.3,36,82.73,82.73,0,0,1,55.77,50.86c2.88,5,3.49,8.37,1.81,10A3.08,3.08,0,0,1,55.37,61.6ZM22.5,22.9a1,1,0,0,0-.72.2c-1,1,1,7.44,10.13,18,1.22,1.51,4.7,5.63,6.5,6.89l.14.11C48.65,57.85,55,60.16,56,59.2c.43-.41.53-2.45-2.21-7.23A80.6,80.6,0,0,0,42.67,37.58a80.67,80.67,0,0,0-13.79-11.9C25.51,23.5,23.51,22.9,22.5,22.9Z"/><path class="cls-3" d="M37.78,48.94c8.68,8.35,16.8,13.19,19,11.07,2.52-2.4-3.44-12.78-13.33-23.2S23.54,19.89,21,22.28c-2.23,2.12,2.18,10.48,10.06,19.59C31.07,41.87,35.44,47.32,37.78,48.94Z"/><path class="cls-5" d="M17,35.35a1.12,1.12,0,0,1-.9-1.78l2.4-3.23a1.12,1.12,0,0,1,1.8,1.33L17.92,34.9A1.09,1.09,0,0,1,17,35.35Z"/><path class="cls-5" d="M5.51,49a1.18,1.18,0,0,1-.74-.28,1.12,1.12,0,0,1-.1-1.58l9-10.25a1.12,1.12,0,0,1,1.69,1.47l-9,10.26A1.12,1.12,0,0,1,5.51,49Z"/><path class="cls-5" d="M56.12,42.71a1.11,1.11,0,0,1-.9-.45,51.54,51.54,0,0,1-8.88-18.67,1.12,1.12,0,1,1,2.18-.52A49.23,49.23,0,0,0,57,40.93a1.13,1.13,0,0,1-.23,1.57A1.16,1.16,0,0,1,56.12,42.71Z"/><circle class="cls-8" cx="60.9" cy="40.76" r="19.01"/><path class="cls-3" d="M74.34,54.2A19,19,0,0,0,79.6,37.36,19,19,0,0,0,43.26,47.84,19,19,0,0,0,74.34,54.2Z"/><path class="cls-4" d="M60.9,60.87A20.11,20.11,0,1,1,75.13,55h0A20.05,20.05,0,0,1,60.9,60.87Zm0-38a17.89,17.89,0,1,0,12.65,5.24A17.84,17.84,0,0,0,60.9,22.87ZM74.34,54.2h0Z"/><circle class="cls-9" cx="42.45" cy="25.47" r="19.2"/><path class="cls-5" d="M56.88,19.6a1.12,1.12,0,0,1-.93-.49,16.46,16.46,0,0,0-2-2.47,17.13,17.13,0,0,0-2.87-2.3,1.12,1.12,0,0,1,1.19-1.89,19,19,0,0,1,3.26,2.61,18.68,18.68,0,0,1,2.31,2.8,1.12,1.12,0,0,1-.3,1.55A1.11,1.11,0,0,1,56.88,19.6Z"/><path class="cls-5" d="M35.5,13.09a1.11,1.11,0,0,1-.42-2.15,19,19,0,0,1,11.44-.89A1.12,1.12,0,1,1,46,12.23,16.75,16.75,0,0,0,35.92,13,1,1,0,0,1,35.5,13.09Z"/><path class="cls-5" d="M70.44,13.34a1.12,1.12,0,0,1-.93-.5,15.18,15.18,0,0,0-1.85-2.24,14.9,14.9,0,0,0-2.61-2.08,1.12,1.12,0,0,1,1.2-1.89,16.78,16.78,0,0,1,3,2.39,17.34,17.34,0,0,1,2.12,2.57,1.13,1.13,0,0,1-.3,1.56A1.18,1.18,0,0,1,70.44,13.34Z"/><path class="cls-5" d="M50.91,7.39a1.12,1.12,0,0,1-1-.7,1.11,1.11,0,0,1,.62-1.45A17.19,17.19,0,0,1,61,4.42a1.11,1.11,0,0,1,.83,1.34,1.13,1.13,0,0,1-1.35.84,15.16,15.16,0,0,0-9.15.71A1.25,1.25,0,0,1,50.91,7.39Z"/><path class="cls-3" d="M61.21,21.43a19.17,19.17,0,0,1-37-1.94,19.19,19.19,0,1,0,37,1.94Z"/><path class="cls-4" d="M42.45,45.78a20.31,20.31,0,1,1,14.37-5.94A20.24,20.24,0,0,1,42.45,45.78Zm0-38.38a18.07,18.07,0,1,0,12.79,5.29A18,18,0,0,0,42.45,7.4Z"/></g></g></g></svg>