<?xml version="1.0" encoding="UTF-8" standalone="no"?> <svg xmlns="http://www.w3.org/2000/svg" viewBox="0 0 83.18 76.09"><defs><style>.cls-1{isolation:isolate;}.cls-2{fill:#895c3a;}.cls-3{fill:#dd8136;opacity:0.5;mix-blend-mode:multiply;}.cls-4{fill:#371438;}.cls-5{fill:#cc7e48;}.cls-6{fill:#91562d;}.cls-7{fill:#ffb77b;}.cls-8{fill:#fff;}</style></defs><title>Asset 18</title><g class="cls-1"><g id="Layer_2" data-name="Layer 2"><g id="Layer_1-2" data-name="Layer 1"><rect class="cls-2" x="19.82" y="23.03" width="10.44" height="60.38" rx="4.67" transform="translate(48.33 -0.79) rotate(48.52)"/><path class="cls-3" d="M23.79,61.29l23.42-20.7a5.22,5.22,0,0,0-6.91-7.82L16.6,53.72Z"/><path class="cls-4" d="M6.34,76.09h-.4A6.34,6.34,0,0,1,2.13,65L39.55,31.93a6.39,6.39,0,0,1,4.59-1.57A6.34,6.34,0,0,1,48,41.43L10.53,74.51A6.29,6.29,0,0,1,6.34,76.09Zm37.4-43.5a4.07,4.07,0,0,0-2.7,1L3.62,66.69a4.07,4.07,0,0,0-1.38,2.82,4.12,4.12,0,0,0,1,3h0a4.1,4.1,0,0,0,2.82,1.37,4.14,4.14,0,0,0,3-1L46.47,39.75A4.1,4.1,0,0,0,46.82,34,4,4,0,0,0,44,32.6Z"/><path class="cls-5" d="M45.35,68.07,74.91,41.93a21.29,21.29,0,0,0,1.85-30h0a21.3,21.3,0,0,0-30-1.85L17.21,36.23,38.6,64.4Z"/><path class="cls-6" d="M73.73,14.34l-13.88.28S49.29,23.05,49.46,24s-.39,11.07.95,12.15,16.84,3,16.84,3,6,2.42,11.07-1.76c.31-.26.62-.49.91-.71a21.38,21.38,0,0,0,0-21.16L78.12,15Z"/><path class="cls-4" d="M71.37,40.9A13.57,13.57,0,0,1,67,40.17c-5.92-.73-15.89-2.09-17.27-3.19-1.07-.87-1.38-3.36-1.33-10.67,0-.91,0-1.94,0-2.16-.13-.68-.29-1.56,10.79-10.4l.29-.24,14.36-.29,4.74.73,1.51.61.2.34a22.49,22.49,0,0,1,0,22.26l-.11.2-.19.14-.87.68A11.85,11.85,0,0,1,71.37,40.9ZM51.15,35.25c1.3.62,9.17,1.85,16.24,2.72l.28.07a10.35,10.35,0,0,0,10-1.59c.25-.21.51-.41.76-.6a20.27,20.27,0,0,0,.11-19.51l-.67-.27-4.16-.61-13.41.27C56,19.14,51.44,23,50.6,24.14c0,.39,0,1,0,2.18C50.6,28.48,50.56,34.13,51.15,35.25Zm-.59-11.5h0Z"/><path class="cls-4" d="M45.55,69.39,41.89,67.7a16.8,16.8,0,0,1-6.38-5.17L15.7,36.08,46,9.26A22.36,22.36,0,0,1,75.65,42.77Zm-26.83-33L37.3,61.19a14.61,14.61,0,0,0,5.53,4.48l2.33,1.07,29-25.64A20.13,20.13,0,0,0,47.51,10.94Z"/><path class="cls-7" d="M64.51,34.41h0a8,8,0,0,1,2.65-7.54,7.9,7.9,0,0,1-1.21-3h0a8,8,0,0,1,6.4-9.35l.55-.1a5.9,5.9,0,0,1,.83-.11A21,21,0,0,0,70,8.28h0A21.31,21.31,0,0,0,40,6.44L12.45,30.81a2.65,2.65,0,0,0-.23,3.75L36.91,62.5a2.55,2.55,0,0,0,3.59.22L67.25,39.08A8,8,0,0,1,64.51,34.41Z"/><path class="cls-4" d="M24.89,20.93A1.12,1.12,0,0,1,24.14,19l8.31-7.35a1.12,1.12,0,0,1,1.48,1.68l-8.3,7.34A1.12,1.12,0,0,1,24.89,20.93Z"/><path class="cls-4" d="M38.82,64.48h-.23a3.63,3.63,0,0,1-2.51-1.23L11.38,35.3A3.77,3.77,0,0,1,11.71,30l8.17-7.23a1.13,1.13,0,0,1,1.58.1,1.11,1.11,0,0,1-.1,1.58l-8.17,7.23a1.52,1.52,0,0,0-.52,1.05,1.58,1.58,0,0,0,.38,1.12l24.7,27.94a1.42,1.42,0,0,0,2,.12L65.6,39a9.1,9.1,0,0,1,.15-12.36,8.93,8.93,0,0,1-.9-2.57,9.16,9.16,0,0,1,7.26-10.66A19.84,19.84,0,0,0,69.17,9,20.15,20.15,0,0,0,40.76,7.27l-.36.32a1.12,1.12,0,1,1-1.48-1.67l.36-.32A22.38,22.38,0,0,1,70.84,7.54a22.13,22.13,0,0,1,3.93,6.38l.57,1.41-1.52.12-.72.09-.55.11a6.89,6.89,0,0,0-4.46,10.6l.55.82-.74.65A6.86,6.86,0,0,0,68,38.22l1,.83L41.24,63.56A3.65,3.65,0,0,1,38.82,64.48Z"/><path class="cls-8" d="M38.5,14.14a1.12,1.12,0,0,1-.75-2l4-3.68a1.12,1.12,0,1,1,1.51,1.65l-4,3.68A1.08,1.08,0,0,1,38.5,14.14Z"/><path class="cls-8" d="M19.23,31.7a1.11,1.11,0,0,1-.75-1.94l13.14-12a1.11,1.11,0,1,1,1.5,1.65L20,31.41A1.12,1.12,0,0,1,19.23,31.7Z"/><path class="cls-4" d="M20.11,43.48a1.12,1.12,0,0,1-.73-2L38.81,24.79a1.12,1.12,0,1,1,1.46,1.69L20.84,43.21A1.12,1.12,0,0,1,20.11,43.48Z"/><path class="cls-4" d="M29.49,54.05a1.15,1.15,0,0,1-.85-.39,1.12,1.12,0,0,1,.12-1.58l19.9-17.2a1.12,1.12,0,0,1,1.47,1.7L30.22,53.77A1.08,1.08,0,0,1,29.49,54.05Z"/></g></g></g></svg>